<svg id="bamboo-group-d" xmlns="http://www.w3.org/2000/svg" width="88.508" height="49.361" viewBox="0 0 88.508 49.361">
  <path id="Path_12" data-name="Path 12" d="M10910.745,1050h0a.749.749,0,0,1,.746.746v25.5a.747.747,0,0,1-.746.746h0a.748.748,0,0,1-.748-.746l0-25.5a.75.75,0,0,1,.746-.746Z" transform="translate(-10844.867 -1043.731)" fill="#a1a1a1" fill-rule="evenodd"/>
  <path id="Path_13" data-name="Path 13" d="M11319.746,0h0a.746.746,0,0,1,.747.746v31.5a.746.746,0,0,1-.747.746h0a.746.746,0,0,1-.746-.746V.746A.746.746,0,0,1,11319.746,0Z" transform="translate(-11251.428 0)" fill="#a1a1a1" fill-rule="evenodd"/>
  <path id="Path_14" data-name="Path 14" d="M11734.746,3118h0a.754.754,0,0,1,.753.746v12.717a.754.754,0,0,1-.753.746h0a.749.749,0,0,1-.746-.746v-12.717A.75.75,0,0,1,11734.746,3118Z" transform="translate(-11663.95 -3099.385)" fill="#a1a1a1" fill-rule="evenodd"/>
  <path id="Path_15" data-name="Path 15" d="M12140.748,3249h0a.746.746,0,0,1,.744.747V3266.3a.746.746,0,0,1-.744.746h0a.745.745,0,0,1-.746-.746v-16.549A.745.745,0,0,1,12140.748,3249Z" transform="translate(-12067.528 -3229.603)" fill="#a1a1a1" fill-rule="evenodd"/>
  <path id="Path_16" data-name="Path 16" d="M12549.748,3511h0a.751.751,0,0,1,.749.746v23.145a.751.751,0,0,1-.749.746h0a.75.75,0,0,1-.748-.746v-23.145A.75.75,0,0,1,12549.748,3511Z" transform="translate(-12474.084 -3490.039)" fill="#a1a1a1" fill-rule="evenodd"/>
  <path id="Path_17" data-name="Path 17" d="M12957.745,3442h0a.746.746,0,0,1,.746.746v27.319a.747.747,0,0,1-.746.748h0a.747.747,0,0,1-.745-.747v-27.319A.747.747,0,0,1,12957.745,3442Z" transform="translate(-12879.649 -3421.451)" fill="#a1a1a1" fill-rule="evenodd"/>
  <path id="Path_18" data-name="Path 18" d="M13374.745,3590h0a.746.746,0,0,1,.747.747v23.945a.747.747,0,0,1-.747.746h0a.748.748,0,0,1-.747-.747v-23.945A.746.746,0,0,1,13374.745,3590Z" transform="translate(-13294.157 -3568.567)" fill="#a1a1a1" fill-rule="evenodd"/>
  <path id="Path_19" data-name="Path 19" d="M13778.753,4229h0a.75.75,0,0,1,.745.747v15.813a.753.753,0,0,1-.745.752h0a.755.755,0,0,1-.751-.752v-15.813a.753.753,0,0,1,.752-.747Z" transform="translate(-13695.749 -4203.753)" fill="#a1a1a1" fill-rule="evenodd"/>
  <path id="Path_20" data-name="Path 20" d="M14186.746,4767h0a.743.743,0,0,1,.744.746v5.194a.745.745,0,0,1-.744.747h0a.747.747,0,0,1-.746-.747v-5.194A.746.746,0,0,1,14186.746,4767Z" transform="translate(-14101.311 -4738.542)" fill="#a1a1a1" fill-rule="evenodd"/>
  <path id="Path_21" data-name="Path 21" d="M14576.748,4943h0a.746.746,0,0,1,.744.746v1.493a.75.75,0,0,1-.745.747h0a.75.75,0,0,1-.746-.746v-1.494A.747.747,0,0,1,14576.748,4943Z" transform="translate(-14488.985 -4913.491)" fill="#a1a1a1" fill-rule="evenodd"/>
  <path id="Path_22" data-name="Path 22" d="M10509.752,2025h0a.746.746,0,0,1,.746.746v16.505a.746.746,0,0,1-.746.746h0a.751.751,0,0,1-.752-.746v-16.507A.751.751,0,0,1,10509.752,2025Z" transform="translate(-10446.264 -2012.911)" fill="#a1a1a1" fill-rule="evenodd"/>
  <path id="Path_23" data-name="Path 23" d="M57.475,2437.937v-1.3h-.382v-.4h1.23v.4h-.385v1.3ZM1.151,2433a1.033,1.033,0,0,1,.442.083,1.234,1.234,0,0,1,.376.256,1.03,1.03,0,0,1,.26.379,1.207,1.207,0,0,1,.09.454v4.7a4.052,4.052,0,0,1,1.284-.418,4.4,4.4,0,0,1,1.313,0,4.533,4.533,0,0,1,1.277.394,4.391,4.391,0,0,1,1.146.782A4.51,4.51,0,0,1,8.275,2441a4.321,4.321,0,0,1,.311,1.671,4.115,4.115,0,0,1-.346,1.66,4.523,4.523,0,0,1-.934,1.361,4.28,4.28,0,0,1-1.361.919,4.069,4.069,0,0,1-3.271-.005,4.6,4.6,0,0,1-2.315-2.3A3.957,3.957,0,0,1,0,2442.67v-8.593a.89.89,0,0,1,.107-.418,1.4,1.4,0,0,1,.262-.352,1.231,1.231,0,0,1,.364-.24,1.008,1.008,0,0,1,.413-.068Zm1.164,9.671a1.9,1.9,0,0,0,.161.77,1.983,1.983,0,0,0,.431.627,2.377,2.377,0,0,0,.627.424,1.821,1.821,0,0,0,.764.155,1.845,1.845,0,0,0,.752-.155,2.229,2.229,0,0,0,.633-.424,2,2,0,0,0,.436-.627,1.892,1.892,0,0,0,.155-.77,1.853,1.853,0,0,0-.155-.771,1.885,1.885,0,0,0-.436-.627,2.007,2.007,0,0,0-.633-.424,1.843,1.843,0,0,0-.752-.161,1.733,1.733,0,0,0-.764.167,2.44,2.44,0,0,0-.627.442,2.036,2.036,0,0,0-.431.64,1.77,1.77,0,0,0-.159.734Zm11.671-4.262a4.061,4.061,0,0,1,1.492.46,4.241,4.241,0,0,1,1.206.943,4.655,4.655,0,0,1,.791,1.313,4.215,4.215,0,0,1,.293,1.546v3.128a1.068,1.068,0,0,1-.359.811,1.1,1.1,0,0,1-.791.34,1.145,1.145,0,0,1-.991-.567.964.964,0,0,0-.155.077,1.508,1.508,0,0,1-.144.078,4.691,4.691,0,0,1-.863.3,4.28,4.28,0,0,1-.973.108,4.1,4.1,0,0,1-2.372-.719,4.5,4.5,0,0,1-1.558-1.851,5.2,5.2,0,0,1-.275-.83,4.3,4.3,0,0,1-.1-.883,4.214,4.214,0,0,1,.1-.884,5.254,5.254,0,0,1,.275-.836,4.406,4.406,0,0,1,1.558-1.857,4.137,4.137,0,0,1,2.372-.7h.257a1.757,1.757,0,0,1,.24.021Zm-.513,6.238a1.977,1.977,0,0,0,.77-.149,1.94,1.94,0,0,0,.627-.412,2.069,2.069,0,0,0,.424-.627,1.939,1.939,0,0,0,.161-.791,1.812,1.812,0,0,0-.161-.752,2.059,2.059,0,0,0-.436-.639,2.013,2.013,0,0,0-.633-.431,1.844,1.844,0,0,0-.752-.161,1.75,1.75,0,0,0-.74.161,2.083,2.083,0,0,0-.633.431,2.157,2.157,0,0,0-.431.639,1.811,1.811,0,0,0-.161.752,1.9,1.9,0,0,0,.167.77,2.248,2.248,0,0,0,.442.627,2.313,2.313,0,0,0,.632.424,1.709,1.709,0,0,0,.725.155Zm8.543-6.253a3.2,3.2,0,0,1,1.033.167,2.9,2.9,0,0,1,.925.52,3.167,3.167,0,0,1,3.176-.448,3.462,3.462,0,0,1,1.006.647,2.987,2.987,0,0,1,.687.973,2.836,2.836,0,0,1,.257,1.2v4.441a.954.954,0,0,1-.352.741,1.168,1.168,0,0,1-.812.322,1.184,1.184,0,0,1-1.15-1.15v-4.3a.758.758,0,0,0-.239-.567.82.82,0,0,0-.591-.227.86.86,0,0,0-.555.2.707.707,0,0,0-.257.591v1.958a1.079,1.079,0,0,1-.346.812,1.123,1.123,0,0,1-.824.341,1.2,1.2,0,0,1-.791-.31.979.979,0,0,1-.352-.753v-2.048a.75.75,0,0,0-.269-.575.784.784,0,0,0-.543-.221.823.823,0,0,0-.579.227.869.869,0,0,0-.257.585v4.385a1.151,1.151,0,0,1-1.146,1.045,1.167,1.167,0,0,1-.46-.09,1.076,1.076,0,0,1-.37-.251,1.247,1.247,0,0,1-.257-.37.875.875,0,0,1-.083-.442v-4.352a2.851,2.851,0,0,1,.251-1.176,3.046,3.046,0,0,1,.668-.967,3.3,3.3,0,0,1,1.006-.668,3.133,3.133,0,0,1,1.226-.244Zm9.367-5.385a1,1,0,0,1,.442.077,1.394,1.394,0,0,1,.382.256,1.051,1.051,0,0,1,.257.382,1.175,1.175,0,0,1,.09.448v4.7a4.052,4.052,0,0,1,1.284-.418,4.4,4.4,0,0,1,1.313,0,4.586,4.586,0,0,1,1.277.394,4.391,4.391,0,0,1,1.147.782A4.51,4.51,0,0,1,38.51,2441a4.325,4.325,0,0,1,.3,1.671,4.109,4.109,0,0,1-.34,1.66,4.522,4.522,0,0,1-.935,1.361,4.276,4.276,0,0,1-1.361.919,4.069,4.069,0,0,1-3.271-.005,4.622,4.622,0,0,1-1.366-.934,4.461,4.461,0,0,1-.949-1.362,3.957,3.957,0,0,1-.352-1.642v-8.593a.883.883,0,0,1,.108-.412,1.212,1.212,0,0,1,.262-.352,1.247,1.247,0,0,1,.364-.24,1,1,0,0,1,.411-.068Zm1.17,9.666a1.894,1.894,0,0,0,.161.77,1.989,1.989,0,0,0,.431.627,2.382,2.382,0,0,0,.627.424,1.928,1.928,0,0,0,1.516,0,2.213,2.213,0,0,0,.633-.424,1.908,1.908,0,0,0,.591-1.4,1.951,1.951,0,0,0-.155-.771,1.873,1.873,0,0,0-.436-.626,2,2,0,0,0-.633-.425,1.855,1.855,0,0,0-.752-.161,1.743,1.743,0,0,0-.764.167,2.417,2.417,0,0,0-.627.443,2.038,2.038,0,0,0-.431.639,1.771,1.771,0,0,0-.159.731Zm11.158-4.3a4.139,4.139,0,0,1,1.642.334,4.394,4.394,0,0,1,2.292,2.281,4.162,4.162,0,0,1,.346,1.683,4.057,4.057,0,0,1-.34,1.653,4.36,4.36,0,0,1-.907,1.349,4.182,4.182,0,0,1-1.355.919,4.126,4.126,0,0,1-1.678.34,4.309,4.309,0,0,1-1.665-.322,4.274,4.274,0,0,1-1.385-6.939,4.348,4.348,0,0,1,1.361-.92,4.563,4.563,0,0,1,1.691-.383Zm0,2.316a1.922,1.922,0,0,0-.764.15,2.085,2.085,0,0,0-.627.417,1.966,1.966,0,0,0-.431,2.185,2.121,2.121,0,0,0,.431.633,2.146,2.146,0,0,0,.627.435,1.825,1.825,0,0,0,.764.156,1.884,1.884,0,0,0,.77-.155,2,2,0,0,0,.627-.436,2.214,2.214,0,0,0,.424-.633,1.9,1.9,0,0,0,.161-.77,2.045,2.045,0,0,0-.585-1.378,1.986,1.986,0,0,0-1.394-.605Zm9.408-2.316a4.161,4.161,0,0,1,1.642.334,4.383,4.383,0,0,1,1.361.919,4.518,4.518,0,0,1,.934,1.361,4.161,4.161,0,0,1,.34,1.684,4.052,4.052,0,0,1-.334,1.653,4.36,4.36,0,0,1-.907,1.349,4.253,4.253,0,0,1-1.355.919,4.151,4.151,0,0,1-1.678.34,4.314,4.314,0,0,1-1.665-.322,4.1,4.1,0,0,1-1.361-.89,4.222,4.222,0,0,1-1.254-3.051,4.131,4.131,0,0,1,.329-1.653,4.063,4.063,0,0,1,.9-1.344,4.355,4.355,0,0,1,1.361-.919,4.572,4.572,0,0,1,1.686-.385Zm0,2.316a1.922,1.922,0,0,0-.764.15,2.085,2.085,0,0,0-.627.417,1.778,1.778,0,0,0-.431.627,1.962,1.962,0,0,0,0,1.558,1.914,1.914,0,0,0,.431.633,2.151,2.151,0,0,0,.627.436,1.953,1.953,0,0,0,1.528,0,1.963,1.963,0,0,0,.633-.435,2.214,2.214,0,0,0,.424-.633,2,2,0,0,0,.155-.77,2.04,2.04,0,0,0-.579-1.379,2.006,2.006,0,0,0-1.4-.6Zm7.373-2.752h-.431l-.1-.734c-.006-.054-.012-.114-.018-.173s-.012-.137-.018-.209a2.534,2.534,0,0,1-.06.269c-.012.024-.012.042-.018.048l-.233.8h-.3l-.233-.8c-.006-.006-.006-.024-.018-.048a2.549,2.549,0,0,1-.06-.269c-.006.065-.012.132-.018.192s-.012.125-.024.191l-.1.734h-.436l.262-1.7h.46l.257.878c.006.006.006.018.012.03a1.037,1.037,0,0,1,.042.2c.006-.03.012-.065.018-.1s.024-.084.036-.137l.262-.872h.46Z" transform="translate(-0.004 -2418.475)" fill="#a1a1a1"/>
</svg>
