<svg id="aya-logo-d" xmlns="http://www.w3.org/2000/svg" width="77.4" height="32.19" viewBox="0 0 77.4 32.19">
  <path id="Path_1" data-name="Path 1" d="M319.286,543.581a1.574,1.574,0,0,0-.235-2.349c-.846-.839-2.829-.691-2.829-.691s-.149,1.967.7,2.806A1.6,1.6,0,0,0,319.286,543.581Z" transform="translate(-302.338 -523.921)" fill="#a1a1a1"/>
  <path id="Path_2" data-name="Path 2" d="M283.682,541.259a1.572,1.572,0,0,0-.234,2.349,1.6,1.6,0,0,0,2.366-.233c.846-.839.7-2.806.7-2.806S284.529,540.416,283.682,541.259Z" transform="translate(-273.463 -523.943)" fill="#a1a1a1"/>
  <path id="Path_3" data-name="Path 3" d="M234.595,419.072l-9.15-6.592a4.338,4.338,0,0,0-5.068,0l-9.156,6.6a4.259,4.259,0,0,0-1.566,4.782l3.5,10.669a4.308,4.308,0,0,0,4.1,2.957h11.317a4.311,4.311,0,0,0,4.1-2.956l3.5-10.675A4.259,4.259,0,0,0,234.595,419.072Zm-11.34,4.125a4.141,4.141,0,0,1,1.941-1.507,4.352,4.352,0,0,1,.6-.178,4.306,4.306,0,0,1,1.272-.084,4.9,4.9,0,0,1,.638.1,4.8,4.8,0,0,1,.621.2,4.685,4.685,0,0,1,.59.286l.025.014a.879.879,0,0,1,.3,1.19.894.894,0,0,1-1.188.339,1.028,1.028,0,0,1-.113-.077,2.741,2.741,0,0,0-1.5-.585,2.886,2.886,0,0,0-.422,0,2.819,2.819,0,0,0-.425.062,2.773,2.773,0,0,0-.413.129,2.683,2.683,0,0,0-.39.186,3.04,3.04,0,0,0-1.216,1.289,3.255,3.255,0,0,0-.172.429,3.3,3.3,0,0,0-.108.454,3.126,3.126,0,0,0-.036.429,4.056,4.056,0,0,1,.859-.9,3.958,3.958,0,0,1,.52-.34,4.031,4.031,0,0,1,.567-.258,4.535,4.535,0,0,1,.6-.178,4.308,4.308,0,0,1,1.272-.084,4.881,4.881,0,0,1,.629.1,4.817,4.817,0,0,1,.621.2,4.692,4.692,0,0,1,.59.286l.025.014a.879.879,0,0,1,.3,1.19.894.894,0,0,1-1.188.339,1.011,1.011,0,0,1-.113-.077,2.741,2.741,0,0,0-1.5-.585,3.086,3.086,0,0,0-.422,0,2.993,2.993,0,0,0-.425.063,2.933,2.933,0,0,0-.413.129,2.824,2.824,0,0,0-.39.187,3.01,3.01,0,0,0-1.085,1.057c1.755.08,4.207.5,5.068,2.145a2.842,2.842,0,0,1,.13,2.664,3.041,3.041,0,0,1-3.749,1.5,5.958,5.958,0,0,1-2.239-1.6,5.992,5.992,0,0,1-2.24,1.6,3.041,3.041,0,0,1-3.754-1.511,2.835,2.835,0,0,1,.13-2.664c.858-1.643,3.31-2.062,5.068-2.145a3.014,3.014,0,0,0-1.086-1.057,2.873,2.873,0,0,0-.39-.187,3.026,3.026,0,0,0-.839-.187,3.076,3.076,0,0,0-.421,0,2.742,2.742,0,0,0-1.5.585.9.9,0,0,1-.913.108.878.878,0,0,1-.093-1.558l.029-.016a4.693,4.693,0,0,1,.59-.286,4.809,4.809,0,0,1,.621-.2,4.915,4.915,0,0,1,.639-.1,4.32,4.32,0,0,1,1.874.258,4.245,4.245,0,0,1,1.082.6,4.046,4.046,0,0,1,.858.9,3.112,3.112,0,0,0-.036-.428,3.29,3.29,0,0,0-.107-.454,3.449,3.449,0,0,0-.173-.429,3.041,3.041,0,0,0-1.216-1.289,2.737,2.737,0,0,0-.39-.186,2.909,2.909,0,0,0-.839-.187,2.868,2.868,0,0,0-.421,0,2.742,2.742,0,0,0-1.5.585.9.9,0,0,1-.913.108.878.878,0,0,1-.093-1.558l.029-.016a4.684,4.684,0,0,1,.59-.286,4.815,4.815,0,0,1,.621-.2,4.905,4.905,0,0,1,.639-.1,4.3,4.3,0,0,1,1.271.084,4.437,4.437,0,0,1,.6.178,4.027,4.027,0,0,1,.565.258,4.089,4.089,0,0,1,1.376,1.244v-.08a3.327,3.327,0,0,0-.038-.47,3.291,3.291,0,0,0-.107-.454,3.445,3.445,0,0,0-.173-.429,3.041,3.041,0,0,0-1.216-1.289,2.877,2.877,0,0,0-.39-.186,2.91,2.91,0,0,0-.839-.187,2.851,2.851,0,0,0-.421,0,2.741,2.741,0,0,0-1.5.585.9.9,0,0,1-1.258-.126.877.877,0,0,1,.235-1.321l.029-.017a4.867,4.867,0,0,1,.59-.286,4.8,4.8,0,0,1,.621-.2,4.916,4.916,0,0,1,.639-.1,4.3,4.3,0,0,1,1.271.084,4.429,4.429,0,0,1,.6.179,3.874,3.874,0,0,1,.565.258,4.087,4.087,0,0,1,1.724,1.85,4.1,4.1,0,0,1,1.723-1.85,3.883,3.883,0,0,1,.567-.258,4.361,4.361,0,0,1,.6-.179,4.309,4.309,0,0,1,1.272-.084,4.9,4.9,0,0,1,.638.1,4.808,4.808,0,0,1,.621.2,4.862,4.862,0,0,1,.59.286l.025.014a.88.88,0,0,1,.02,1.55.9.9,0,0,1-.908-.021.874.874,0,0,1-.113-.077,2.741,2.741,0,0,0-1.5-.585,2.894,2.894,0,0,0-.422,0,2.81,2.81,0,0,0-.425.062,2.77,2.77,0,0,0-.413.129,2.828,2.828,0,0,0-.39.186,3.041,3.041,0,0,0-1.216,1.289,3.255,3.255,0,0,0-.172.429,3.059,3.059,0,0,0-.146.924.341.341,0,0,0,0,.08Z" transform="translate(-209.444 -411.663)" fill="#a1a1a1"/>
  <path id="Path_4" data-name="Path 4" d="M443.507,448h-4.183l-8.074,21.465h4.693l.91-2.605h9.128l.91,2.605h4.693Zm-5.134,14.711,3.042-8.679,3.043,8.679Z" transform="translate(-402.428 -443.316)" fill="#a1a1a1"/>
  <path id="Path_5" data-name="Path 5" d="M580.933,478.423l-3.992,11.316-4.375-11.316H568l6.656,16.6-.382.942a4.2,4.2,0,0,1-1.2,1.623,3.407,3.407,0,0,1-2.226.645v3.583a1.972,1.972,0,0,0,.457.112,4.166,4.166,0,0,0,.474.059c.19.01.39.018.59.018a5.57,5.57,0,0,0,1.9-.308,4.464,4.464,0,0,0,1.559-.981,7.752,7.752,0,0,0,1.351-1.753,22.6,22.6,0,0,0,1.274-2.622c.051-.1.191-.441.418-1.021s.507-1.3.837-2.168.7-1.83,1.121-2.887.843-2.136,1.275-3.244q1.522-3.848,3.378-8.6Z" transform="translate(-521.409 -469.815)" fill="#a1a1a1"/>
  <path id="Path_6" data-name="Path 6" d="M705.268,480.994a6.4,6.4,0,0,0-3.594-3.564,7.172,7.172,0,0,0-2.738-.516,8.668,8.668,0,0,0-2.948.473,7.443,7.443,0,0,0-2.264,1.262,6.046,6.046,0,0,0-1.5,1.851,6.665,6.665,0,0,0-.7,2.262h4.372a2.185,2.185,0,0,1,.457-.944,3.4,3.4,0,0,1,.817-.644,2.7,2.7,0,0,1,1.388-.3,2.8,2.8,0,0,1,2.079.791,3,3,0,0,1,.78,2.227,24.184,24.184,0,0,0-5,.432,9.9,9.9,0,0,0-3.213,1.209,4.507,4.507,0,0,0-1.731,1.848,5.389,5.389,0,0,0-.52,2.358,4.54,4.54,0,0,0,1.522,3.527,6.315,6.315,0,0,0,4.374,1.378,6.953,6.953,0,0,0,2.054-.282,7.621,7.621,0,0,0,1.559-.66,8.406,8.406,0,0,0,1.331-.944l.76,1.7h3.233V483.712A7.04,7.04,0,0,0,705.268,480.994Zm-3.859,6.679a3.414,3.414,0,0,1-1.047,2.584,3.822,3.822,0,0,1-2.757,1,2.34,2.34,0,0,1-1.635-.585,1.723,1.723,0,0,1-.65-1.3,2.223,2.223,0,0,1,.229-1.02,1.845,1.845,0,0,1,.894-.773,6.461,6.461,0,0,1,1.844-.49,23.034,23.034,0,0,1,3.119-.169Z" transform="translate(-628.381 -468.503)" fill="#a1a1a1"/>
</svg>
