<svg width="110" height="44" viewBox="0 0 110 44" fill="none" xmlns="http://www.w3.org/2000/svg">
<path d="M100.121 20.8957H95.9995V4.67062H99.8724V6.48889C100.357 5.39793 101.569 4.42818 103.145 4.30696C105.812 4.18575 107.624 5.76158 107.624 9.14963V20.8957H103.388V8.66476C103.388 7.21014 103.388 5.99796 102.418 5.75552C102.054 5.6343 101.448 5.75552 100.963 6.11918C100.357 6.72527 100.115 7.45257 100.115 8.66476C100.121 8.90719 100.121 20.8957 100.121 20.8957Z" fill="#01383D"/>
<path d="M30.1288 5.76046C29.1591 4.91194 27.9469 4.30585 26.4983 4.30585C25.0437 4.30585 23.9588 4.91194 22.8679 5.76046C21.1708 7.21508 20.0798 9.87582 20.0798 12.7851C20.0798 15.8094 21.1708 18.355 22.8679 19.8096C23.9588 20.6582 25.0498 21.2643 26.4983 21.2643C27.953 21.2643 29.1651 20.6582 30.1288 19.8096C31.9471 18.355 32.9168 15.8155 32.9168 12.7851C32.9108 9.87582 31.941 7.20902 30.1288 5.76046ZM28.553 12.779C28.553 15.8034 28.553 18.2278 28.0681 19.4399C27.7045 20.046 27.3408 20.4097 26.4923 20.4097C25.765 20.4097 25.2801 20.046 25.0377 19.4399C24.4316 18.2278 24.4316 15.8094 24.4316 12.779C24.4316 9.87582 24.4316 7.33024 25.0377 6.11806C25.2801 5.51197 25.765 5.14831 26.4923 5.14831C27.3408 5.14831 27.7045 5.51197 28.0681 6.11806C28.6742 7.33024 28.553 9.87582 28.553 12.779Z" fill="#01383D"/>
<path d="M72.3869 27.0685V31.4263H71.5383C71.0535 29.6081 70.3262 28.0383 68.3927 27.9171C67.1805 27.7959 66.0896 28.5232 65.9684 29.6141C65.8471 30.7051 66.2108 31.6748 68.3927 32.881C71.1747 34.4568 73.3566 35.1841 73.3566 38.4509C73.3566 41.9602 70.3322 43.6572 67.7866 43.6572C66.6957 43.6572 62.944 43.6572 62.944 43.6572V37.6085H63.7925C64.3986 40.7601 65.3683 42.6936 67.6654 42.8148C69.12 42.8148 70.2049 41.9663 70.2049 40.3904C70.2049 38.8146 69.2352 37.8448 66.9381 36.5175C64.3986 34.9417 62.8228 33.9719 62.8228 31.796C62.8228 28.8868 64.8835 27.0746 68.1503 27.0746C69.2413 27.0685 72.3869 27.0685 72.3869 27.0685Z" fill="#01383D"/>
<path d="M77.718 20.8958V9.1498C77.718 5.76175 75.8997 4.18592 73.239 4.30713C71.4207 4.42835 70.3358 5.64053 69.8509 6.61028C69.2448 4.91322 67.9114 4.18592 65.978 4.30713C64.4022 4.42835 63.196 5.3981 62.7112 6.48906V4.67079H58.9595V20.8958H63.0748C63.0748 20.8958 63.0748 9.02858 63.0748 8.66492C63.0748 7.45274 63.196 6.72543 63.9234 6.11934C64.4082 5.75569 64.8931 5.63447 65.2568 5.75569C66.2265 5.99813 66.2265 7.21031 66.2265 8.66492V20.8958H70.3419V8.54371C70.3419 7.45274 70.5843 6.72543 71.1904 6.11934C71.6753 5.75569 72.1601 5.63447 72.5238 5.75569C73.4935 5.99813 73.6147 7.21031 73.6147 8.66492V20.8958H77.718Z" fill="#01383D"/>
<path d="M35.6978 1.2774H39.9343V20.8966H35.6978V1.2774Z" fill="#01383D"/>
<path d="M54.9483 20.8966V1.2774H50.7117V5.87763C50.348 5.02911 49.4995 4.42301 48.2873 4.42301C45.2629 4.42301 42.8386 7.56862 42.7174 12.4173C42.5961 15.6902 43.6871 21.139 47.9237 21.139C49.6207 21.139 50.5905 20.1692 50.9541 19.3207V20.8966H54.9483ZM49.9844 5.99885C50.8329 7.21103 50.8329 10.1142 50.8329 12.4173C50.8329 14.8417 50.9541 17.9873 49.9844 19.3207C49.6207 19.8056 49.2571 20.048 48.651 20.048C47.8025 20.048 47.3176 19.0783 47.0751 17.5085C46.9539 16.0539 46.9539 14.2356 46.9539 12.3022C46.9539 9.03537 47.1964 5.39882 48.7722 5.39882C49.3783 5.39276 49.6207 5.6352 49.9844 5.99885Z" fill="#01383D"/>
<path d="M90.3083 5.15437C91.3993 5.76046 92.1266 6.73021 92.1266 8.90607V20.8945H88.1324V19.0763C87.6476 20.4097 86.3142 21.2582 84.502 21.2582C83.0473 21.2582 80.5078 20.5309 80.5078 16.7792C80.5078 13.2639 82.811 12.5426 85.3505 11.4517C87.6536 10.4819 87.89 10.3607 87.89 9.39095C87.89 8.54242 87.89 7.81511 87.89 6.72415C87.89 5.63319 87.2839 5.14831 86.0717 5.14831C85.5869 5.26953 84.7383 5.51197 84.7383 6.11806C84.6171 6.84537 85.4656 6.84537 85.5869 7.93633C85.7081 9.63338 84.3747 10.2334 83.1625 10.1183C82.314 10.1183 81.3442 9.63338 81.223 8.29998C81.1018 6.11806 83.5261 4.30585 86.9142 4.30585C88.4961 4.30585 89.4598 4.6695 90.3083 5.15437ZM87.89 11.2092L86.5566 12.0577C85.2232 12.9063 84.9808 13.9972 84.8595 15.2094C84.7383 16.1792 84.7383 17.0277 84.8595 18.4762C84.9808 19.8096 85.8293 20.0521 86.5566 19.8096C87.4051 19.446 87.89 17.8702 87.89 16.1792C87.89 16.1731 87.89 11.8153 87.89 11.2092Z" fill="#01383D"/>
<path d="M30.3664 27.7959C31.4574 28.5232 32.0635 29.3717 32.0635 31.5476V43.6572H28.1905V41.839C27.7057 43.0512 26.3723 43.8997 24.5601 43.8997C22.9842 43.8997 20.5659 43.2936 20.5659 39.5419C20.5659 36.0326 22.8691 35.3053 25.2874 34.2144C27.7117 33.1234 27.9481 33.0022 27.9481 32.1536C27.9481 31.3051 27.9481 30.5778 27.9481 29.4868C27.9481 28.2747 27.342 27.7898 26.1298 27.911C25.645 27.911 24.7964 28.1534 24.7964 28.7595C24.6752 29.6081 25.5237 29.6081 25.645 30.699C25.7662 32.2749 24.4328 32.881 23.2206 32.881C22.3721 32.7597 21.4023 32.2749 21.2811 30.9415C21.1599 28.8808 23.5842 27.0685 26.9723 27.0685C28.5542 27.0685 29.5179 27.311 30.3664 27.7959ZM27.9481 33.8507L26.6147 34.6992C25.2813 35.5478 25.0389 36.6387 24.9176 37.8448C24.7964 38.8146 24.7964 39.7843 24.9176 41.1117C24.9176 42.5663 25.7662 42.8087 26.4935 42.4451C27.4632 42.0814 27.9481 40.6268 27.9481 38.8146C27.9481 38.8206 27.9481 34.4568 27.9481 33.8507Z" fill="#01383D"/>
<path d="M59.6759 31.9142C59.6759 28.5262 57.8576 26.8291 55.1969 27.0716C53.8635 27.1928 52.7725 27.7989 52.1725 28.6474V23.926H48.0571V35.0659C48.0571 39.1813 45.154 43.0602 42.2447 42.939C40.184 42.939 39.6992 41.3632 39.4628 39.6722C39.0991 37.2478 39.0991 34.4659 39.3416 31.4354C39.584 29.4959 40.0689 27.9262 41.5235 27.9262C42.6144 27.9262 42.7357 28.6535 42.2508 29.1383C41.7659 29.7444 41.0386 30.3505 41.4023 31.6839C41.7659 33.1385 44.063 33.381 45.154 32.29C46.0025 31.3203 45.8813 29.7444 45.2752 28.7808C44.5479 27.5686 43.3357 27.0837 41.5235 27.0837C39.2203 27.0837 34.8625 29.1444 34.8625 35.6841C34.8625 42.7087 39.3416 43.9209 41.8871 43.9209C44.7964 43.9209 47.3359 41.3753 48.0632 39.3207V43.6785H52.1786V31.4294C52.1786 30.2172 52.421 29.4899 53.0271 28.8838C53.512 28.5201 54.1181 28.3989 54.4817 28.5201C55.4515 28.7626 55.4515 29.9747 55.4515 31.4233V43.6542H59.688V31.9142H59.6759Z" fill="#01383D"/>
<path d="M17.2905 0.916687V7.82006H16.4419C15.7146 4.43201 14.1388 1.88643 11.9629 1.76521C10.5083 1.644 9.66584 2.49252 8.93247 3.7047C8.20516 5.15932 7.8415 8.18371 7.8415 11.8203C7.8415 15.2083 7.96272 17.7539 8.32638 19.5722C8.56881 20.4207 9.1749 21.7541 10.7507 21.7541C11.5993 21.7541 12.2054 21.5116 12.569 21.0268C13.1751 20.2995 13.2963 18.8448 13.2963 17.8812C13.2963 16.3053 13.2963 15.8205 13.2963 14.6083C13.2963 13.3961 12.9327 12.6688 12.3266 12.3051C11.8417 12.0627 11.1144 12.0627 10.7507 11.9415V11.0929H17.5329V28.409H16.6844C16.3207 27.0756 16.0783 26.1058 15.4722 25.0209C14.8661 23.9299 13.7751 22.7238 11.9629 22.7238C10.0234 22.6026 8.57487 23.8148 8.57487 25.627C8.57487 28.0514 10.0295 28.6514 12.6902 30.106C15.2358 31.5606 18.5026 32.7728 18.5026 37.0094C18.5026 41.1247 14.9934 43.6703 10.9932 43.6703C10.1446 43.6703 4.57467 43.6703 4.57467 43.6703V35.3063H5.4232C6.51416 41.6035 9.1749 42.6945 10.9932 42.6945C13.2963 42.6945 14.3812 41.2399 14.3812 39.1852C14.26 36.5184 12.4417 35.5548 9.90221 34.2214C6.27173 32.1607 4.57467 31.1909 4.57467 27.8029C4.69589 24.8936 6.99904 23.0814 9.53856 22.3541C4.21102 21.748 2.63519 16.9054 2.7564 11.699C2.7564 6.49272 5.78079 0.922748 11.7144 0.922748C14.3812 0.916687 17.2905 0.916687 17.2905 0.916687Z" fill="#01383D"/>
</svg>
