<svg width="150" height="32" viewBox="0 0 150 32" fill="none" xmlns="http://www.w3.org/2000/svg">
<path d="M29.7023 18.7975H34.5237V21.8405C34.5237 23.362 34.5237 24.908 36.8733 24.908C39.2473 24.908 39.2473 23.3374 39.2473 21.0061C39.2473 19.1411 38.8802 18.3558 37.6075 17.4969L33.0063 14.4049C30.5589 12.7362 29.8736 10.8957 29.8736 8.22085C29.8736 6.1595 30.0694 4.19632 31.7581 2.773C32.7371 1.96319 34.4993 1.20245 37.0446 1.20245C39.8592 1.20245 43.7261 2.35582 43.7261 6.87116V9.47239H38.9291V7.58282C38.9291 6.30675 38.9291 4.90797 36.7999 4.90797C35.5027 4.90797 34.5727 5.39877 34.5727 7.5092C34.5727 9.71779 35.0622 10.184 36.0901 10.8957L40.8381 14.135C41.7682 14.7975 42.7716 15.7301 43.3345 16.7116C44.0443 17.9141 44.0443 18.7239 44.0443 20.8589C44.0443 23.2147 44.0443 24.6626 43.1877 26.0368C41.7437 28.3926 38.7333 28.638 36.9467 28.638C32.8105 28.638 29.6533 27.0675 29.6533 22.6503V18.7975H29.7023Z" fill="#01383D"/>
<path d="M49.3801 1.71777H62.0825V5.74232H54.2016V11.9264H61.6174V15.9264H54.2016V24H62.4251V28.0736H49.3801V1.71777Z" fill="#01383D"/>
<path d="M72.435 1.74231H67.6379V28.0491H72.435V1.74231Z" fill="#01383D"/>
<path d="M77.5746 18.7975H82.3961V21.8405C82.3961 23.362 82.3961 24.908 84.7456 24.908C87.1197 24.908 87.1197 23.3374 87.1197 21.0061C87.1197 19.1411 86.7526 18.3558 85.4799 17.4969L80.8787 14.4049C78.4312 12.7362 77.7459 10.8957 77.7459 8.22085C77.7459 6.1595 77.9417 4.19632 79.6305 2.773C80.6094 1.96319 82.3961 1.20245 84.917 1.20245C87.756 1.20245 91.5985 2.35582 91.5985 6.87116V9.47239H86.8015V7.58282C86.8015 6.30675 86.8015 4.90797 84.6722 4.90797C83.3751 4.90797 82.445 5.39877 82.445 7.5092C82.445 9.71779 82.9345 10.184 83.9625 10.8957L88.7105 14.135C89.6406 14.7975 90.644 15.7301 91.207 16.7116C91.9167 17.9141 91.9167 18.7239 91.9167 20.8589C91.9167 23.2147 91.9167 24.6626 91.0601 26.0368C89.6161 28.3926 86.6057 28.638 84.8191 28.638C80.6829 28.638 77.5256 27.0675 77.5256 22.6503V18.7975H77.5746Z" fill="#01383D"/>
<path d="M97.2527 1.74231H105.109L108.217 20.1718L111.301 1.74231H119.084V28.0736H114.287L114.727 5.25152L110.493 28.0736H105.965L101.634 5.25152L102.025 28.0736H97.2527V1.74231Z" fill="#01383D"/>
<path d="M129.094 1.74231H124.297V28.0491H129.094V1.74231Z" fill="#01383D"/>
<path d="M143.803 11.362V7.99999C143.803 6.0368 143.46 4.90797 141.356 4.90797C139.251 4.90797 139.128 6.57668 139.128 7.77914V21.8896C139.128 23.4601 139.398 24.8589 141.551 24.8589C143.828 24.8589 143.828 23.2147 143.828 21.6196V18.184H148.625V21.9141C148.625 24.0491 148.625 28.6135 141.478 28.6135C140.107 28.6135 137.905 28.3681 136.387 27.362C134.307 25.9877 134.307 23.9264 134.307 22.4785V8.17178C134.307 6.03681 134.429 4.58896 135.604 3.28834C137.489 1.22699 140.474 1.20245 141.478 1.20245C148.625 1.20245 148.625 5.44785 148.625 7.31288V11.3865H143.803V11.362Z" fill="#01383D"/>
<path d="M10.1962 10.0858H18.6644C18.6644 5.42326 14.8708 1.64417 10.1962 1.64417C5.52153 1.64417 1.75244 5.42326 1.75244 10.0858C1.75244 14.7483 5.546 18.5274 10.1962 18.5274V10.0858Z" fill="#01383D"/>
<path d="M11.8359 20.2207H3.36768C3.36768 24.8833 7.16124 28.6624 11.8359 28.6624C16.5105 28.6624 20.2796 24.8833 20.2796 20.2207C20.2796 15.5582 16.486 11.7791 11.8359 11.7791V20.2207Z" fill="#01383D"/>
</svg>
