<svg width="164" height="28" viewBox="0 0 164 28" fill="none" xmlns="http://www.w3.org/2000/svg">
<path d="M72.3999 12.8981C72.3999 11.3781 72.3999 9.84814 72.3999 8.32814C71.0899 8.31814 69.7799 8.31814 68.4699 8.32814C68.4699 6.66814 68.4599 5.00814 68.4799 3.34814C66.7499 3.35814 65.0099 3.34814 63.2799 3.34814V8.31814H61.1299C61.1299 9.83814 61.1299 11.3681 61.1299 12.8981H63.2799C63.2899 14.2881 63.2799 15.6781 63.2799 17.0781C63.2799 17.1981 63.2799 17.3081 63.2799 17.4281C63.2799 17.5181 63.2799 17.5981 63.2799 17.6881C63.2799 18.4981 63.2799 19.3081 63.2899 20.1181C63.3299 22.3081 64.1299 24.6581 65.9799 25.9481C67.6099 27.1081 69.6299 27.3281 71.5699 27.2981C69.9699 25.6281 69.0099 23.1981 68.6299 21.2481L68.6199 21.1881L68.6099 21.1281C68.5599 20.6981 68.4899 20.0081 68.4999 19.2881C68.4899 19.1281 68.4799 18.9781 68.4699 18.8281C68.4599 18.4281 68.4599 18.0381 68.4599 17.6381C68.4499 16.0581 68.4699 14.4781 68.4599 12.8981C69.7799 12.9081 71.0899 12.9081 72.3999 12.8981Z" fill="#01383D"/>
<path d="M60.16 4.77834C60.15 3.24834 60.15 1.72833 60.16 0.198335C57.6 -0.231665 54.64 -0.0616652 52.59 1.70833C50.75 3.35833 50.39 5.98833 50.46 8.32833C50.44 8.32833 50.43 8.32833 50.41 8.32833H48.21C48.21 9.85833 48.21 11.3783 48.21 12.9083H50.11C50.23 12.9083 50.35 12.9083 50.47 12.9083H50.48V15.4083H50.47C50.47 19.1483 50.48 22.8983 50.47 26.6383H52.88C53.83 26.6383 54.79 26.6383 55.74 26.6383C55.74 22.8383 55.74 19.0383 55.74 15.2383V12.8983H59.26C59.26 11.3683 59.26 9.84833 59.26 8.31833C59.26 8.31833 55.81 8.31833 55.72 8.31833C55.77 7.28833 55.65 6.05834 56.5 5.29834C57.51 4.44834 58.94 4.71834 60.16 4.77834Z" fill="#01383D"/>
<path d="M40.8199 22.6784C39.4899 23.0884 37.8599 23.5484 36.6299 22.6084C35.5099 21.8184 35.6599 19.9184 36.8699 19.2984C38.1099 18.6484 39.5499 18.8784 40.8699 19.1384C40.9899 20.3184 40.9799 21.4984 40.8199 22.6784ZM41.0399 26.6384H43.3799C43.8199 26.6384 44.2699 26.6384 44.7099 26.6384H46.1899C46.1599 22.7184 46.2199 18.7984 46.1599 14.8684C46.1199 12.5684 45.2499 10.0084 43.0499 8.92844C39.9099 7.36844 36.2299 7.71844 32.8899 8.25844C32.8799 9.91844 32.8899 11.5884 32.8799 13.2584C35.0299 12.7884 37.3799 12.2984 39.5199 13.0984C40.5099 13.4384 40.8799 14.4884 41.0399 15.4284C39.5499 15.2384 38.0299 14.8884 36.5299 15.1884C34.7499 15.4084 32.9799 16.2784 31.9699 17.8084C30.3399 20.2384 30.8099 23.9184 33.2199 25.6784C35.4799 27.3984 38.7699 27.2184 41.0699 25.6584C41.0599 25.9184 41.0499 26.3984 41.0399 26.6384Z" fill="#01383D"/>
<path d="M14.08 1.80834C16.18 1.81834 18.28 1.80834 20.38 1.80834C17.3 5.94834 14.29 10.1383 11.2 14.2683C13.96 18.3883 16.67 22.5383 19.45 26.6383C17.27 26.6583 15.09 26.6283 12.91 26.6483C10.48 22.9683 8.05 19.2783 5.63 15.5883C5.62 19.2683 5.62 22.9583 5.63 26.6383C3.75 26.6283 1.87 26.6383 0 26.6383C0.01 18.3583 0.01 10.0883 0 1.80834C1.88 1.79834 3.75 1.80834 5.63 1.79834C5.63 5.70834 5.62 9.60834 5.63 13.5183C8.45 9.60834 11.28 5.71834 14.08 1.80834Z" fill="#01383D"/>
<path d="M20.76 8.38814C22.53 8.37814 24.3 8.38814 26.07 8.37814C26.06 9.54814 26.06 10.7181 26.04 11.8781C26.9 9.93814 28.75 8.68814 30.81 8.34814C30.81 10.0781 30.84 11.8181 30.79 13.5481C28.53 13.8181 26.21 15.4981 26.13 17.9381C26.07 20.8381 26.12 23.7381 26.11 26.6381C24.32 26.6381 22.54 26.6381 20.75 26.6381C20.76 20.5481 20.76 14.4681 20.76 8.38814Z" fill="#01383D"/>
<path d="M113.41 11.0784C114.3 11.3784 112.08 15.8184 112.08 15.8184C111.19 16.1184 110.3 16.4084 109.71 16.4084C110 15.8184 111.63 10.1884 113.41 11.0784ZM115.04 22.9284C114.3 23.2284 114.15 23.3684 113.26 23.6684C112.37 23.9684 111.33 23.9684 110.44 23.6684C107.63 22.4884 109.4 18.1884 109.4 18.1884C120.95 15.3784 119.33 9.1484 116.21 8.8584C114.28 8.8584 107.32 9.1584 104.06 17.1584C103.62 18.3484 100.5 26.7884 107.47 27.3784C108.95 27.3784 110.58 27.2284 112.06 26.4884C113.39 25.7484 114.43 24.8584 115.32 23.6684C116.08 22.3384 115.04 22.9284 115.04 22.9284Z" fill="#01383D"/>
<path d="M142 24.5585C141.85 24.4085 141.56 24.4085 141.41 24.2585C140.52 23.6685 141.26 22.0385 141.41 21.1485L144.08 11.6685C144.23 11.0785 145.27 7.96846 141.12 8.55846C137.57 9.14846 135.05 11.3785 135.05 11.3785C135.35 10.4885 135.64 9.15845 135.05 8.85845C134.31 8.55845 130.01 9.89846 128.98 10.7885C128.68 10.7885 128.24 11.2285 128.68 11.6785C129.12 12.2685 129.27 12.7185 128.98 13.7485C128.39 15.5285 126.61 21.7485 126.17 22.9285C125.73 24.1185 125.13 26.3385 126.17 27.0785C126.91 27.6685 130.02 26.3385 130.47 26.0385C130.91 25.8885 131.36 25.5985 131.51 25.4485C132.1 24.8585 131.21 24.5585 132.1 21.4485C132.1 21.2985 133.14 18.1885 133.88 15.5185C134.47 13.2985 136.55 12.2585 137.29 12.1085C138.48 11.9585 138.18 12.9985 138.03 13.7385C136.99 16.9985 135.81 21.8885 135.36 23.0685C134.92 24.2585 134.17 26.6285 135.36 27.0685C136.4 27.8085 141.14 25.7385 141.58 25.4385C142.45 24.8585 142.45 24.5585 142 24.5585Z" fill="#01383D"/>
<path d="M123.93 24.5581C123.63 24.4081 123.49 24.4081 123.34 24.2581C122.45 23.6681 123.04 22.0381 123.34 21.1481L126.16 11.6681C126.31 10.6281 126.9 9.29809 126.16 8.84809C125.27 8.54809 120.97 9.88809 119.94 10.7781C119.79 10.7781 119.35 11.2181 119.79 11.6681C120.23 12.2581 120.23 12.7081 119.94 13.7381C119.5 15.5181 117.42 21.8881 116.98 23.0681C116.54 24.2581 115.94 26.6281 117.28 27.0681C118.32 27.8081 122.76 25.8781 123.35 25.4381C124.37 25.0081 124.37 24.5581 123.93 24.5581Z" fill="#01383D"/>
<path d="M123.04 6.63844C123.34 7.22844 126 6.04844 127.34 5.30844C127.49 5.15844 128.08 4.71844 128.23 4.26844C128.53 3.22844 128.67 2.78844 128.82 2.04844C128.97 1.74844 128.97 1.30844 128.52 1.15844C127.93 1.00844 124.37 1.45844 123.48 2.93844C123.19 3.52844 122.15 6.33844 123.04 6.63844Z" fill="#01383D"/>
<path d="M162.74 17.0084C162.3 15.3784 159.63 14.9384 158.59 15.8184C158 16.4084 157.7 17.5984 157.85 17.8884C160.37 17.1484 160.81 19.3684 160.37 20.2584C159.48 21.5884 159.18 22.0384 158 22.0384H150.15C150 21.8884 149.85 21.7384 150.15 21.4484C150.59 20.8584 158.3 10.3384 158.59 9.8984C158.74 9.5984 159.18 8.8584 158.14 8.8584H149.55C148.66 8.8584 148.22 9.1584 147.48 9.8984C146.89 10.6384 146.15 12.8584 145.7 14.3384C145.7 14.3384 145.7 14.9284 146.59 14.1884C146.74 14.0384 147.03 13.4484 147.48 13.4484H152.67C154.3 13.4484 145.71 21.5984 143.04 25.8884C142.6 26.6284 143.34 26.6284 143.78 26.6284H155.04C157.85 26.6284 157.41 27.0684 158.89 24.9984C158.89 25.0084 163.48 19.0784 162.74 17.0084Z" fill="#01383D"/>
<path d="M100.82 22.0384L103.93 10.0384C106 2.7784 107.19 2.4784 107.93 1.7384H103.04C101.26 1.7384 99.93 4.2584 99.63 5.8884L97.56 13.4484H93.12C93.12 13.4484 95.79 3.8184 96.08 2.7784C96.23 2.3384 96.23 1.7384 95.34 1.7384C95.19 1.7384 85.86 1.4384 82.9 2.4784C81.57 2.9184 79.64 4.1084 79.05 5.8884C78.61 6.9284 78.01 8.8484 79.35 12.4084C79.5 12.8484 79.79 13.1484 79.94 13.2984C80.38 13.5984 84.24 12.9984 84.09 12.9984C84.39 12.9984 84.53 12.8484 84.24 12.2584C83.94 11.5184 83.06 10.1884 82.91 8.8484C82.32 3.6584 86.02 2.9184 86.61 2.7784C87.5 2.6284 88.24 2.6284 89.13 2.7784C89.43 2.7784 90.17 2.9284 90.32 3.2184C90.62 3.8084 90.17 4.8484 89.88 6.0284C89.58 6.9184 87.07 16.0984 86.32 18.6184C85.88 20.5484 83.95 24.6884 82.02 25.2884C81.58 25.4384 80.98 25.4384 80.39 25.2884C79.8 25.1384 79.2 24.8484 78.76 24.5484C77.57 23.3584 76.83 20.9884 76.69 19.2184C76.54 16.9984 76.99 15.3684 76.54 15.3684C75.77 15.3684 73.19 16.3884 72.14 17.1384C71.72 17.4384 71.69 17.4984 71.69 17.4984C71.67 17.5184 71.65 17.5384 71.64 17.5584C71.37 18.0284 71.39 19.6784 71.51 20.6884C71.95 22.9084 73.14 25.4284 74.92 26.6184C79.66 29.8784 87.96 23.9484 88.84 23.3584C90.17 22.1684 91.06 20.5484 91.36 19.3584C91.8 17.8784 92.55 15.3584 92.55 15.3584H96.99C96.99 15.3584 95.21 22.0284 94.77 23.6484C94.33 24.9784 94.03 27.2084 95.21 27.0584C99.66 27.0584 101.43 25.4284 101.58 25.2784C101.73 25.1284 101.73 24.8384 101.58 24.6884C101.27 24.5584 100.23 23.5184 100.82 22.0384Z" fill="#01383D"/>
</svg>
