<svg width="144" height="20" viewBox="0 0 144 20" fill="none" xmlns="http://www.w3.org/2000/svg">
<path d="M71.9336 6.39708C72.0237 4.71792 72.6245 3.34861 73.5657 2.27915V0.849854H72.3141C69.7808 0.849854 67.638 1.81937 66.3864 4.00828H66.3163V1.08974H59.8179V18.8809H66.3163V11.7044C66.3163 8.65597 67.2075 6.33712 70.8122 6.33712C71.2127 6.32712 71.5832 6.3571 71.9336 6.39708Z" fill="#01383D"/>
<path d="M121.128 6.33712C121.668 4.7679 122.539 3.36859 123.681 2.23916V0.849854H122.429C119.896 0.849854 117.753 1.81937 116.502 4.00828H116.432V1.08974H109.933V18.8809H116.432V11.7044C116.432 8.65597 117.333 6.33712 120.937 6.33712H121.128Z" fill="#01383D"/>
<path d="M85.1308 5.66729C84.1295 5.14755 82.7377 4.79773 81.6263 4.79773C80.8853 4.79773 79.5936 5.10757 79.5936 6.00712C79.5936 7.22651 81.6263 7.39643 82.5274 7.57634C85.5514 8.16605 87.8443 9.55534 87.8443 12.8437C87.8443 17.5214 83.4486 19.4704 79.2031 19.4704C76.5997 19.4704 74.0264 18.7408 71.8135 17.4214L74.1665 13.0136C75.4883 13.9232 77.7011 14.8127 79.3032 14.8127C80.1243 14.8127 81.3359 14.4329 81.3359 13.4634C81.3359 12.0741 79.3032 12.0041 77.2606 11.4844C75.2279 10.9647 73.1953 9.99513 73.1953 6.80672C73.1953 2.43891 77.2606 0.499878 81.2658 0.499878C83.3385 0.499878 85.4112 0.809723 87.2936 1.63931L85.1308 5.66729Z" fill="#01383D"/>
<path d="M143.156 18.8807H136.658V16.9017H136.588C135.446 18.6708 133.193 19.4704 131.05 19.4704C125.623 19.4704 121.798 15.0626 121.798 9.96515C121.798 4.8677 125.543 0.499878 130.97 0.499878C133.073 0.499878 135.296 1.25949 136.648 2.81871V1.08958H143.146L143.156 18.8807ZM128.517 10.0051C128.517 12.254 130.059 13.9931 132.693 13.9931C135.336 13.9931 136.868 12.264 136.868 10.0051C136.868 7.81622 135.336 5.98713 132.693 5.98713C130.059 5.98713 128.517 7.81622 128.517 10.0051Z" fill="#01383D"/>
<path d="M108.902 11.0446H95.224C95.224 13.6034 96.6158 14.9926 99.2993 14.9926C100.691 14.9926 101.692 14.5429 102.403 13.3635H108.651C107.62 17.5614 103.505 19.4704 99.3293 19.4704C93.2615 19.4704 88.7256 16.1421 88.7256 10.0051C88.7256 4.0781 92.901 0.509888 98.8588 0.509888C105.217 0.509888 108.892 4.32799 108.892 10.395L108.902 11.0446ZM102.864 7.40644C102.544 5.70728 100.931 4.59784 99.1892 4.59784C97.2968 4.59784 95.7347 5.56735 95.3342 7.40644H102.864Z" fill="#01383D"/>
<path d="M39.161 9.69515C39.151 9.54523 39.1409 9.3953 39.1309 9.23538C38.9807 7.5862 38.44 6.03698 37.5088 4.64767C37.0983 4.02798 36.6177 3.45826 36.097 2.95851C35.326 2.21888 34.4248 1.5992 33.4235 1.11944C31.9015 0.399795 30.2293 0.0299838 28.437 0.0299838C28.2668 0.0299838 28.0766 0.0299783 27.8963 0.0399733C26.6347 0.0999433 25.4231 0.339825 24.2816 0.759615C23.1301 1.17941 22.1288 1.72913 21.3077 2.3788C21.1375 2.50874 20.9573 2.67865 20.767 2.84857L20.6168 2.97851L20.4266 3.1784L20.3365 3.26836L20.2964 3.31833L20.0661 3.55822C19.8959 3.74812 19.7357 3.93802 19.5855 4.12793L19.5755 4.11794C19.2651 4.49775 18.9747 4.89755 18.7544 5.24738C18.6142 5.47726 18.464 5.70714 18.3339 5.94702L16.4614 9.72514L16.3613 9.91504L16.151 10.3348C15.7405 11.1644 15.2999 11.994 14.8093 12.6737C13.7078 13.8731 12.4762 14.4628 10.8842 14.4628C10.774 14.4628 10.6539 14.4528 10.5437 14.4528C9.58247 14.4128 8.76142 14.1929 8.03047 13.7531C7.95037 13.7031 7.88026 13.6632 7.80016 13.6132C7.19938 13.2134 6.74878 12.7136 6.40833 12.074C6.01782 11.3543 5.8476 10.6247 5.87764 9.84507C5.87764 9.82508 5.87764 9.80509 5.87764 9.7851C5.92771 8.54572 6.39833 7.58621 7.35958 6.74663C7.58988 6.54673 7.83021 6.37681 8.09054 6.22688C8.1306 6.20689 8.16062 6.18691 8.20067 6.16692C8.9116 5.77711 9.71264 5.5872 10.6439 5.5872L10.9342 5.59719C12.4062 5.65716 13.5376 6.10694 14.4388 7.00649L17.2725 1.92903C16.5916 1.47925 15.8306 1.08944 14.9895 0.769604C14.9595 0.759609 14.9294 0.739626 14.8894 0.729631C14.7892 0.689651 14.6891 0.659665 14.589 0.619685C13.6878 0.319835 12.7566 0.139933 11.7854 0.0499781C11.7653 0.0499781 11.7353 0.0399733 11.7153 0.0399733C11.5651 0.0299783 11.4149 0.00998951 11.2647 0.00998951C11.1045 -5.4902e-06 10.9443 0 10.7841 0H10.6939C8.91162 0.00999501 7.25947 0.369812 5.7475 1.08945C4.0553 1.90904 2.6835 3.08845 1.66217 4.61769C0.650851 6.14692 0.090127 7.84608 0.0100228 9.66517C9.77857e-06 9.82509 0 9.97501 0 10.1249C0 12.6737 0.931211 14.9125 2.78362 16.8016C4.71614 18.7806 7.22942 19.8401 10.2433 19.97C10.4336 19.98 10.6238 19.98 10.8141 19.98C12.5163 19.98 14.0983 19.6802 15.5202 19.0705C15.8707 18.9205 16.2211 18.7406 16.5716 18.5407C16.7618 18.4308 16.9421 18.3108 17.1223 18.1909L17.2525 18.101L17.4727 17.951C17.7431 17.7611 17.9934 17.5512 18.2337 17.3313L18.3138 17.2514C18.454 17.1114 18.6042 16.9815 18.7344 16.8316L19.245 16.2619L19.4353 16.022L19.5254 15.8921L19.6155 15.7621C20.3665 14.4928 22.8297 9.89505 22.8297 9.89505V9.88506L22.9799 9.6052L23.1001 9.38531C23.4605 8.72564 23.7209 8.25586 24.0713 7.76611L24.0814 7.75612C24.8924 6.5867 26.2742 5.75712 27.9163 5.61719C30.6599 5.37731 33.063 7.18641 33.2833 9.63518C33.5036 12.094 31.461 14.2729 28.7074 14.5128C28.1366 14.5627 27.5759 14.5227 27.0552 14.4128L27.0452 14.4228C25.0326 14.003 23.7509 12.5337 23.1201 11.8841L20.4767 16.7316C20.4767 16.7316 21.2977 17.5612 21.8585 17.971C22.4192 18.3808 23.1501 18.7906 23.7309 19.0405C25.1427 19.6402 26.6747 20 28.3669 20C28.5672 20 28.5271 20 28.7274 19.99C31.7413 19.8601 34.4248 18.7106 36.3673 16.7416C38.1997 14.8626 39.201 12.7236 39.211 10.1949V10.115C39.171 9.97503 39.161 9.83508 39.161 9.69515Z" fill="#01383D"/>
<path d="M49.2642 19.4805C47.8924 19.4805 46.6508 19.3205 45.5393 19.0007C44.4279 18.6808 43.4767 18.1811 42.6856 17.4914C41.8946 16.8018 41.2838 15.9222 40.8533 14.8628C40.4227 13.8033 40.2124 12.5139 40.2124 11.0247V1.07965H46.4806V10.9447C46.4806 12.0642 46.7509 12.8738 47.2816 13.3835C47.8123 13.8932 48.4932 14.1431 49.3243 14.1431C50.1654 14.1431 50.8562 13.9032 51.3769 13.4335C51.8976 12.9637 52.168 12.1741 52.168 11.0747V1.07965H58.4361V10.8948C58.4361 12.444 58.2158 13.7533 57.7753 14.8328C57.3347 15.9122 56.7139 16.8018 55.9228 17.4914C55.1218 18.1811 54.1606 18.6808 53.0291 19.0007C51.8776 19.3205 50.636 19.4805 49.2642 19.4805Z" fill="#01383D"/>
</svg>
