<svg width="96" height="26" viewBox="0 0 96 26" fill="none" xmlns="http://www.w3.org/2000/svg">
<path d="M18.4949 11.13H10.4259C10.2162 11.13 10.0464 11.3 10.0464 11.51V15.46C10.0464 15.67 10.2162 15.84 10.4259 15.84H13.5716V20.75C13.5716 20.75 12.8626 20.99 10.9152 20.99C8.60834 20.99 5.39269 20.15 5.39269 13.06C5.39269 5.97 8.74815 5.03 11.8939 5.03C14.6202 5.03 15.7886 5.51 16.5376 5.74C16.7773 5.81 16.987 5.58 16.987 5.37L17.8858 1.55C17.8858 1.45 17.8558 1.33 17.746 1.26C17.4364 1.04 15.5889 0 10.9152 0C5.52252 0 0 2.29 0 13.33C0 24.36 6.32144 26 11.6542 26C16.0682 26 18.7446 24.11 18.7446 24.11C18.8545 24.05 18.8644 23.89 18.8644 23.82V11.51C18.8644 11.3 18.7047 11.13 18.4949 11.13Z" fill="#01383D"/>
<path d="M60.0686 1.31994C60.0686 1.10994 59.8989 0.939941 59.6991 0.939941H55.1553C54.9456 0.939941 54.7758 1.10994 54.7758 1.31994V10.1099H47.6954V1.31994C47.6954 1.10994 47.5256 0.939941 47.3159 0.939941H42.7721C42.5623 0.939941 42.3926 1.10994 42.3926 1.31994V25.1199C42.3926 25.3299 42.5623 25.4999 42.7721 25.4999H47.3159C47.5256 25.4999 47.6954 25.3299 47.6954 25.1199V14.9399H54.7758L54.7658 25.1199C54.7658 25.3299 54.9356 25.4999 55.1453 25.4999H59.6991C59.9088 25.4999 60.0686 25.3299 60.0786 25.1199V1.31994H60.0686Z" fill="#01383D"/>
<path d="M27.0633 4.45023C27.0633 2.81023 25.755 1.49023 24.1372 1.49023C22.5194 1.49023 21.2112 2.81023 21.2112 4.45023C21.2112 6.09023 22.5194 7.41023 24.1372 7.41023C25.755 7.41023 27.0633 6.08023 27.0633 4.45023Z" fill="#01383D"/>
<path d="M26.7435 20.1C26.7435 19.49 26.7435 9.10998 26.7435 9.10998C26.7435 8.89998 26.5737 8.72998 26.364 8.72998H21.8402C21.6304 8.72998 21.4507 8.93998 21.4507 9.14998C21.4507 9.14998 21.4507 22.37 21.4507 24.89C21.4507 25.35 21.7403 25.49 22.1098 25.49C22.1098 25.49 24.0472 25.49 26.1943 25.49C26.6436 25.49 26.7535 25.27 26.7535 24.88C26.7435 24.05 26.7435 20.75 26.7435 20.1Z" fill="#01383D"/>
<path d="M77.3353 8.77002H72.8314C72.6217 8.77002 72.4519 8.94002 72.4519 9.15002V20.82C72.4519 20.82 71.3034 21.66 69.6856 21.66C68.0578 21.66 67.6284 20.92 67.6284 19.33C67.6284 17.73 67.6284 9.15002 67.6284 9.15002C67.6284 8.94002 67.4587 8.77002 67.2489 8.77002H62.6751C62.4654 8.77002 62.2957 8.94002 62.2957 9.15002C62.2957 9.15002 62.2957 15.37 62.2957 20.1C62.2957 24.83 64.9321 25.99 68.5572 25.99C71.5331 25.99 73.9299 24.35 73.9299 24.35C73.9299 24.35 74.0397 25.22 74.0997 25.32C74.1496 25.42 74.2894 25.53 74.4292 25.53L77.3353 25.52C77.545 25.52 77.7148 25.35 77.7148 25.14V9.16002C77.7148 8.94002 77.545 8.77002 77.3353 8.77002Z" fill="#01383D"/>
<path d="M89.6585 8.23994C87.1019 8.23994 85.3543 9.37994 85.3543 9.37994V1.31994C85.3543 1.10994 85.1845 0.939941 84.9748 0.939941H80.421C80.2113 0.939941 80.0415 1.10994 80.0415 1.31994V25.1199C80.0415 25.3299 80.2113 25.4999 80.421 25.4999H83.5767C83.7165 25.4999 83.8264 25.4299 83.9063 25.2999C83.9862 25.1699 84.096 24.1999 84.096 24.1999C84.096 24.1999 85.9635 25.9699 89.4887 25.9699C93.6331 25.9699 95.9999 23.8699 95.9999 16.5299C96.0099 9.19994 92.215 8.23994 89.6585 8.23994ZM87.8809 21.6499C86.313 21.5999 85.2544 20.8899 85.2544 20.8899V13.3499C85.2544 13.3499 86.303 12.7099 87.5813 12.5899C89.2091 12.4399 90.767 12.9399 90.767 16.8099C90.777 20.9099 90.0679 21.7199 87.8809 21.6499Z" fill="#01383D"/>
<path d="M39.796 8.72996H36.3906L36.3806 4.21996C36.3806 4.04996 36.2907 3.95996 36.091 3.95996H31.4573C31.2775 3.95996 31.1777 4.03996 31.1777 4.20996V8.86996C31.1777 8.86996 28.8508 9.42996 28.691 9.47996C28.5312 9.52996 28.4214 9.66996 28.4214 9.83996V12.77C28.4214 12.98 28.5912 13.15 28.8009 13.15H31.1777C31.1777 13.15 31.1777 16.21 31.1777 20.19C31.1777 25.42 34.8427 25.93 37.3093 25.93C38.4378 25.93 39.786 25.57 40.0157 25.48C40.1555 25.43 40.2254 25.29 40.2254 25.14V21.92C40.2254 21.71 40.0456 21.54 39.8459 21.54C39.6462 21.54 39.1369 21.62 38.6176 21.62C36.9398 21.62 36.3806 20.84 36.3806 19.83C36.3806 18.82 36.3806 13.14 36.3806 13.14H39.786C39.9957 13.14 40.1655 12.97 40.1655 12.76V9.10996C40.1755 8.89996 40.0057 8.72996 39.796 8.72996Z" fill="#01383D"/>
</svg>
