<svg width="120" height="40" viewBox="0 0 120 40" fill="none" xmlns="http://www.w3.org/2000/svg">
<path d="M59.9999 14.3465H56.1699V31.0423H59.9999V14.3465Z" fill="#01383D"/>
<path d="M70.1501 21.1747C68.1901 20.5449 66.3801 20.035 66.3801 18.8353V18.7753C66.3801 17.7956 67.2301 17.0958 68.7201 17.0958C69.4501 17.0958 70.2601 17.2657 71.1001 17.5556C71.1001 17.5556 71.1101 17.5556 71.1201 17.5656C71.1901 17.5956 71.2701 17.6156 71.3401 17.6456C71.9501 17.8356 73.5801 18.0955 74.9601 15.956C73.1901 14.7863 70.9101 14.0565 68.8201 14.0565C65.5001 14.0565 62.8701 15.986 62.8701 19.1452V19.2052C62.8701 22.4044 65.6201 23.4142 68.0901 24.104C70.0501 24.7039 71.8201 25.1437 71.8201 26.4434V26.5034C71.8201 27.6131 70.8701 28.303 69.2301 28.303C68.1401 28.303 66.9401 28.013 65.7401 27.4532C65.4001 27.3132 63.6101 26.6934 62.0801 28.8728C64.1601 30.5024 66.7701 31.3422 69.1301 31.3422C72.6101 31.3422 75.3301 29.6026 75.3301 26.0935V26.0335C75.3401 23.0443 72.5901 21.9345 70.1501 21.1747Z" fill="#01383D"/>
<path d="M45.73 26.6133L41.24 14.3364H40V3.62909C40 1.62959 38.38 0 36.37 0H3.63C1.62 0 0 1.6196 0 3.62909V36.3709C0 38.3704 1.62 40 3.63 40H36.38C38.38 40 40.01 38.3804 40.01 36.3709V21.3947L44 31.1622H47.45L54.28 14.3364H50.26L45.73 26.6133ZM13.37 7.76806C14.7 7.76806 15.81 8.8078 15.81 10.1775C15.81 11.5471 14.7 12.5869 13.37 12.5869C12.04 12.5869 10.93 11.5471 10.93 10.1775C10.92 8.8078 12.04 7.76806 13.37 7.76806ZM29.72 30.7923C27.24 30.7923 26.05 29.3227 26.05 27.3032C26.05 26.7333 26.12 26.1135 26.3 25.5036L27.49 21.2647C27.63 20.7948 27.67 20.3649 27.67 19.975C27.67 18.6153 26.84 17.7856 25.51 17.7856C23.82 17.7856 22.71 18.9953 22.13 21.3347L19.83 30.5524H15.81L16.53 27.6531C15.35 29.5926 13.7 30.8023 11.68 30.8023C9.24 30.8023 8.09 29.3927 8.09 27.2732C8.09 26.7333 8.16 26.0735 8.31 25.4636L10.14 17.9755H7.3L8.16 14.7963H14.99L12.29 25.4836C12.11 26.1635 12.04 26.7333 12.04 27.1232C12.04 27.803 12.38 28.003 12.9 28.123C13.22 28.193 15.77 28.143 17.16 25.0537L18.93 17.9655H16.06L16.92 14.7863H23.06L22.27 18.3954C23.35 16.3859 25.5 14.4764 27.62 14.4764C29.88 14.4764 31.75 16.086 31.75 19.1752C31.75 19.965 31.64 20.8248 31.35 21.7946L30.2 25.9235C30.09 26.3534 30.02 26.7133 30.02 27.0332C30.02 27.7531 30.31 28.113 30.85 28.113C31.39 28.113 32.07 27.7131 32.86 25.5236L34.44 26.1335C33.52 29.4326 31.84 30.7923 29.72 30.7923Z" fill="#01383D"/>
<path d="M93.12 13.9965C87.99 13.9965 84.2 17.9455 84.2 22.7543C84.2 27.5331 87.96 31.4222 93.06 31.4222C98.22 31.4222 102.01 27.4732 102.01 22.6943C102.01 17.8855 98.24 13.9965 93.12 13.9965ZM93.12 28.103C90.15 28.103 88.03 25.6636 88.03 22.6943C88.03 19.7551 89.99 17.3457 93.06 17.3457C96.07 17.3457 98.19 19.7851 98.19 22.7543C98.18 25.7036 96.22 28.103 93.12 28.103Z" fill="#01383D"/>
<path d="M81.7001 14.3465H77.8701V31.0423H81.7001V14.3465Z" fill="#01383D"/>
<path d="M113.37 13.9965C110.78 13.9965 109.23 15.3562 108.15 16.9358V14.3464H104.32V31.0423H108.15V21.6146C108.15 19.0253 109.7 17.4757 111.92 17.4757C114.2 17.4757 115.5 18.9653 115.5 21.5546V31.0423H119.33V20.4149C119.32 16.5259 117.13 13.9965 113.37 13.9965Z" fill="#01383D"/>
</svg>
